<svg  viewBox="0 0 80 80" fill="none" xmlns="http://www.w3.org/2000/svg">
<path d="M54.1733 57.846C60.2604 54.6744 65.1071 49.5529 67.9377 43.3013C70.7683 37.0497 71.4192 30.0294 69.7861 23.3642C68.153 16.699 64.3303 10.7742 58.9301 6.53822C53.5298 2.30224 46.8641 0 40 0C33.1359 0 26.4702 2.30224 21.0699 6.53822C15.6697 10.7742 11.847 16.699 10.2139 23.3642C8.58082 30.0294 9.23167 37.0497 12.0623 43.3013C14.8929 49.5529 19.7396 54.6744 25.8267 57.846C8.68 59.1256 0 62.7646 0 68.6697C0 78.0405 21.7467 80 40 80C58.2533 80 80 78.0405 80 68.6697C80 62.7646 71.32 59.1256 54.1733 57.846ZM17.3333 30.6799C17.3333 26.1981 18.6627 21.8169 21.1534 18.0904C23.644 14.3639 27.184 11.4594 31.3258 9.74431C35.4676 8.02919 40.0251 7.58043 44.4221 8.4548C48.819 9.32916 52.8578 11.4874 56.0278 14.6565C59.1977 17.8256 61.3565 21.8634 62.2311 26.2591C63.1057 30.6548 62.6569 35.2111 60.9413 39.3518C59.2257 43.4924 56.3204 47.0315 52.5929 49.5215C48.8654 52.0115 44.483 53.3405 40 53.3405C33.991 53.3321 28.2306 50.9419 23.9816 46.694C19.7326 42.4462 17.3418 36.6873 17.3333 30.6799ZM40 77.3341C16.9733 77.3341 2.66667 74.0149 2.66667 68.6697C2.66667 64.2976 12.2267 61.2717 28.8933 60.312L31.48 62.9113C23.1067 63.3778 12 64.7508 12 68.6697C12 73.1085 26.16 74.2682 34.6 74.5748H34.64C34.8151 74.5783 34.9892 74.5473 35.1523 74.4835C35.3154 74.4198 35.4643 74.3245 35.5906 74.2032C35.7169 74.0819 35.8181 73.9369 35.8883 73.7766C35.9585 73.6162 35.9965 73.4435 36 73.2685C36.0035 73.0934 35.9725 72.9194 35.9087 72.7563C35.8449 72.5933 35.7497 72.4444 35.6283 72.3181C35.507 72.1919 35.362 72.0907 35.2015 72.0205C35.0411 71.9503 34.8684 71.9123 34.6933 71.9088C21.92 71.4556 16 69.6161 14.8133 68.6697C15.9867 67.7366 21.7333 65.9504 34.0267 65.4573L37.3733 68.803C38.091 69.4357 39.0165 69.782 39.9733 69.7761C40.975 69.7776 41.9425 69.4125 42.6933 68.7497L45.9733 65.4573C58.2667 65.9504 64.0133 67.7366 65.1867 68.6697C64 69.6161 58.08 71.4556 45.3067 71.9088C44.953 71.9159 44.6167 72.0631 44.3717 72.3181C44.1266 72.5731 43.9929 72.915 44 73.2685C44.0071 73.622 44.1543 73.9582 44.4094 74.2032C44.6644 74.4482 45.0064 74.5819 45.36 74.5748H45.4C53.84 74.2682 68 73.1085 68 68.6697C68 64.7508 56.8933 63.3778 48.52 62.9113L51.1067 60.312C67.7733 61.2717 77.3333 64.2976 77.3333 68.6697C77.3333 74.0149 63.0267 77.3341 40 77.3341Z" fill="white"/>
<path d="M51.9999 42.6767V32.8927C53.9237 32.2131 55.5151 30.8244 56.4485 29.0106C57.382 27.1968 57.5869 25.095 57.0214 23.1351C56.456 21.1752 55.1628 19.5054 53.4065 18.4673C51.6502 17.4291 49.5635 17.101 47.5733 17.5501C47.0609 15.9443 46.051 14.5429 44.6897 13.5485C43.3283 12.5541 41.686 12.0182 39.9999 12.0182C38.3139 12.0182 36.6716 12.5541 35.3102 13.5485C33.9489 14.5429 32.939 15.9443 32.4266 17.5501C30.4364 17.101 28.3497 17.4291 26.5934 18.4673C24.8371 19.5054 23.5439 21.1752 22.9785 23.1351C22.413 25.095 22.6179 27.1968 23.5514 29.0106C24.4848 30.8244 26.0762 32.2131 27.9999 32.8927V42.6767C28.0031 43.7363 28.4256 44.7516 29.175 45.5009C29.9245 46.2501 30.94 46.6725 31.9999 46.6756H47.9999C49.0598 46.6725 50.0754 46.2501 50.8249 45.5009C51.5743 44.7516 51.9968 43.7363 51.9999 42.6767ZM30.6666 40.0108V37.3448H49.3333V40.0108H30.6666Z" fill="white"/>
</svg>
